<svg fill="none" height="624" viewBox="0 0 1704 624" width="1704" xmlns="http://www.w3.org/2000/svg" xmlns:xlink="http://www.w3.org/1999/xlink"><filter id="a" color-interpolation-filters="sRGB" filterUnits="userSpaceOnUse" height="1816" width="1800.5" x="91.6318" y="-664"><feFlood flood-opacity="0" result="BackgroundImageFix"/><feColorMatrix in="SourceAlpha" type="matrix" values="0 0 0 0 0 0 0 0 0 0 0 0 0 0 0 0 0 0 127 0"/><feOffset/><feGaussianBlur stdDeviation="100"/><feColorMatrix type="matrix" values="0 0 0 0 0 0 0 0 0 0 0 0 0 0 0 0 0 0 0.1 0"/><feBlend in2="BackgroundImageFix" mode="normal" result="effect1_dropShadow"/><feBlend in="SourceGraphic" in2="effect1_dropShadow" mode="normal" result="shape"/></filter><filter id="b" color-interpolation-filters="sRGB" filterUnits="userSpaceOnUse" height="1816" width="1520.46" x="371.676" y="-664"><feFlood flood-opacity="0" result="BackgroundImageFix"/><feColorMatrix in="SourceAlpha" type="matrix" values="0 0 0 0 0 0 0 0 0 0 0 0 0 0 0 0 0 0 127 0"/><feOffset/><feGaussianBlur stdDeviation="100"/><feColorMatrix type="matrix" values="0 0 0 0 0 0 0 0 0 0 0 0 0 0 0 0 0 0 0.1 0"/><feBlend in2="BackgroundImageFix" mode="normal" result="effect1_dropShadow"/><feBlend in="SourceGraphic" in2="effect1_dropShadow" mode="normal" result="shape"/></filter><filter id="c" color-interpolation-filters="sRGB" filterUnits="userSpaceOnUse" height="1816" width="959.809" x="932.045" y="-664"><feFlood flood-opacity="0" result="BackgroundImageFix"/><feColorMatrix in="SourceAlpha" type="matrix" values="0 0 0 0 0 0 0 0 0 0 0 0 0 0 0 0 0 0 127 0"/><feOffset/><feGaussianBlur stdDeviation="100"/><feColorMatrix type="matrix" values="0 0 0 0 0 0 0 0 0 0 0 0 0 0 0 0 0 0 0.1 0"/><feBlend in2="BackgroundImageFix" mode="normal" result="effect1_dropShadow"/><feBlend in="SourceGraphic" in2="effect1_dropShadow" mode="normal" result="shape"/></filter><filter id="d" color-interpolation-filters="sRGB" filterUnits="userSpaceOnUse" height="1816" width="960.09" x="1212.23" y="-664"><feFlood flood-opacity="0" result="BackgroundImageFix"/><feColorMatrix in="SourceAlpha" type="matrix" values="0 0 0 0 0 0 0 0 0 0 0 0 0 0 0 0 0 0 127 0"/><feOffset/><feGaussianBlur stdDeviation="100"/><feColorMatrix type="matrix" values="0 0 0 0 0 0 0 0 0 0 0 0 0 0 0 0 0 0 0.1 0"/><feBlend in2="BackgroundImageFix" mode="normal" result="effect1_dropShadow"/><feBlend in="SourceGraphic" in2="effect1_dropShadow" mode="normal" result="shape"/></filter><linearGradient id="e"><stop offset="0" stop-color="#c4c4c4"/><stop offset=".28125" stop-color="#e5e5e5"/><stop offset=".9375" stop-color="#e5e5e5"/><stop offset="1" stop-color="#fff"/></linearGradient><linearGradient id="f" gradientUnits="userSpaceOnUse" x1="426" x2="426" xlink:href="#e" y1="488" y2="614"/><linearGradient id="g" gradientUnits="userSpaceOnUse" x1="1272" x2="1272" xlink:href="#e" y1="488" y2="614"/><linearGradient id="h"><stop offset="0" stop-color="#e5e5e5"/><stop offset=".0416667" stop-color="#c4c4c4"/><stop offset=".963542" stop-color="#c4c4c4"/><stop offset="1" stop-color="#e5e5e5"/></linearGradient><linearGradient id="i" gradientUnits="userSpaceOnUse" x1="321" x2="531" xlink:href="#h" y1="614" y2="614"/><linearGradient id="j" gradientUnits="userSpaceOnUse" x1="1167" x2="1377" xlink:href="#h" y1="614" y2="614"/><clipPath id="k"><path d="m6 8h1692v472h-1692z"/></clipPath><path d="m321 488h210v126h-210z" fill="url(#f)"/><path d="m1167 488h210v126h-210z" fill="url(#g)"/><rect fill="#000" height="486" rx="5" stroke="#e0e0e0" stroke-width="2" width="850" x="1" y="1"/><rect fill="#000" height="486" rx="5" stroke="#e0e0e0" stroke-width="2" width="850" x="853" y="1"/><path d="m6 8h840v472h-840z" fill="#212121"/><path d="m858 8h840v472h-840z" fill="#212121"/><rect fill="url(#i)" height="10" rx="2" width="210" x="321" y="614"/><rect fill="url(#j)" height="10" rx="2" width="210" x="1167" y="614"/><g clip-path="url(#k)"><path d="m6 8h1692v472h-1692z" fill="#fff"/><path d="m-268.318-464h1680.55v1416h-1680.55z" fill="#34c759"/><g filter="url(#a)"><path d="m291.632-464h1400.5v1416h-1400.5z" fill="#fc0"/></g><g filter="url(#b)"><path d="m571.676-464h1120.46v1416h-1120.46z" fill="#ff9500"/></g><path d="m851.86-464h840.273v1416h-840.273z" fill="#ff3b30"/><g filter="url(#c)"><path d="m1132.04-464h559.809v1416h-559.809z" fill="#af52de"/></g><g filter="url(#d)"><path d="m1412.23-464h560.09v1416h-560.09z" fill="#007aff"/></g></g><path d="m846 6h4v476h-4z" fill="#000"/><path d="m850 6h4v476h-4z" fill="#e0e0e0"/><path d="m854 6h4v476h-4z" fill="#000"/></svg>