<svg fill="none" height="624" viewBox="0 0 1704 624" width="1704" xmlns="http://www.w3.org/2000/svg" xmlns:xlink="http://www.w3.org/1999/xlink"><filter id="a" color-interpolation-filters="sRGB" filterUnits="userSpaceOnUse" height="2325.57" width="2321.85" x="-193.37" y="-988.632"><feFlood flood-opacity="0" result="BackgroundImageFix"/><feColorMatrix in="SourceAlpha" type="matrix" values="0 0 0 0 0 0 0 0 0 0 0 0 0 0 0 0 0 0 127 0"/><feOffset/><feGaussianBlur stdDeviation="100"/><feColorMatrix type="matrix" values="0 0 0 0 0 0 0 0 0 0 0 0 0 0 0 0 0 0 0.1 0"/><feBlend in2="BackgroundImageFix" mode="normal" result="effect1_dropShadow"/><feBlend in="SourceGraphic" in2="effect1_dropShadow" mode="normal" result="shape"/></filter><filter id="b" color-interpolation-filters="sRGB" filterUnits="userSpaceOnUse" height="2185.75" width="2079.33" x="49.1553" y="-988.632"><feFlood flood-opacity="0" result="BackgroundImageFix"/><feColorMatrix in="SourceAlpha" type="matrix" values="0 0 0 0 0 0 0 0 0 0 0 0 0 0 0 0 0 0 127 0"/><feOffset/><feGaussianBlur stdDeviation="100"/><feColorMatrix type="matrix" values="0 0 0 0 0 0 0 0 0 0 0 0 0 0 0 0 0 0 0.1 0"/><feBlend in2="BackgroundImageFix" mode="normal" result="effect1_dropShadow"/><feBlend in="SourceGraphic" in2="effect1_dropShadow" mode="normal" result="shape"/></filter><filter id="c" color-interpolation-filters="sRGB" filterUnits="userSpaceOnUse" height="2045.85" width="1836.68" x="291.802" y="-988.632"><feFlood flood-opacity="0" result="BackgroundImageFix"/><feColorMatrix in="SourceAlpha" type="matrix" values="0 0 0 0 0 0 0 0 0 0 0 0 0 0 0 0 0 0 127 0"/><feOffset/><feGaussianBlur stdDeviation="100"/><feColorMatrix type="matrix" values="0 0 0 0 0 0 0 0 0 0 0 0 0 0 0 0 0 0 0.1 0"/><feBlend in2="BackgroundImageFix" mode="normal" result="effect1_dropShadow"/><feBlend in="SourceGraphic" in2="effect1_dropShadow" mode="normal" result="shape"/></filter><filter id="d" color-interpolation-filters="sRGB" filterUnits="userSpaceOnUse" height="1905.81" width="1593.79" x="534.449" y="-988.492"><feFlood flood-opacity="0" result="BackgroundImageFix"/><feColorMatrix in="SourceAlpha" type="matrix" values="0 0 0 0 0 0 0 0 0 0 0 0 0 0 0 0 0 0 127 0"/><feOffset/><feGaussianBlur stdDeviation="100"/><feColorMatrix type="matrix" values="0 0 0 0 0 0 0 0 0 0 0 0 0 0 0 0 0 0 0.1 0"/><feBlend in2="BackgroundImageFix" mode="normal" result="effect1_dropShadow"/><feBlend in="SourceGraphic" in2="effect1_dropShadow" mode="normal" result="shape"/></filter><filter id="e" color-interpolation-filters="sRGB" filterUnits="userSpaceOnUse" height="1905.95" width="1594.03" x="777.096" y="-1128.53"><feFlood flood-opacity="0" result="BackgroundImageFix"/><feColorMatrix in="SourceAlpha" type="matrix" values="0 0 0 0 0 0 0 0 0 0 0 0 0 0 0 0 0 0 127 0"/><feOffset/><feGaussianBlur stdDeviation="100"/><feColorMatrix type="matrix" values="0 0 0 0 0 0 0 0 0 0 0 0 0 0 0 0 0 0 0.1 0"/><feBlend in2="BackgroundImageFix" mode="normal" result="effect1_dropShadow"/><feBlend in="SourceGraphic" in2="effect1_dropShadow" mode="normal" result="shape"/></filter><linearGradient id="f"><stop offset="0" stop-color="#c4c4c4"/><stop offset=".28125" stop-color="#e5e5e5"/><stop offset=".9375" stop-color="#e5e5e5"/><stop offset="1" stop-color="#fff"/></linearGradient><linearGradient id="g" gradientUnits="userSpaceOnUse" x1="426" x2="426" xlink:href="#f" y1="488" y2="614"/><linearGradient id="h" gradientUnits="userSpaceOnUse" x1="1272" x2="1272" xlink:href="#f" y1="488" y2="614"/><linearGradient id="i"><stop offset="0" stop-color="#e5e5e5"/><stop offset=".0416667" stop-color="#c4c4c4"/><stop offset=".963542" stop-color="#c4c4c4"/><stop offset="1" stop-color="#e5e5e5"/></linearGradient><linearGradient id="j" gradientUnits="userSpaceOnUse" x1="321" x2="531" xlink:href="#i" y1="614" y2="614"/><linearGradient id="k" gradientUnits="userSpaceOnUse" x1="1167" x2="1377" xlink:href="#i" y1="614" y2="614"/><clipPath id="l"><path d="m6 8h1692v472h-1692z"/></clipPath><path d="m321 488h210v126h-210z" fill="url(#g)"/><path d="m1167 488h210v126h-210z" fill="url(#h)"/><rect fill="#000" height="486" rx="5" stroke="#e0e0e0" stroke-width="2" width="850" x="1" y="1"/><rect fill="#000" height="486" rx="5" stroke="#e0e0e0" stroke-width="2" width="850" x="853" y="1"/><path d="m6 8h840v472h-840z" fill="#212121"/><path d="m858 8h840v472h-840z" fill="#212121"/><rect fill="url(#j)" height="10" rx="2" width="210" x="321" y="614"/><rect fill="url(#k)" height="10" rx="2" width="210" x="1167" y="614"/><g clip-path="url(#l)"><path d="m6 8h1692v472h-1692z" fill="#fff"/><path d="m0 0h1679.97v1416.49h-1679.97z" fill="#34c759" transform="matrix(.866325 -.499481 .500519 .865725 -478.301 190.238)"/><g filter="url(#a)"><path d="m0 0h1400.02v1416.49h-1400.02z" fill="#fc0" transform="matrix(.866325 -.499481 .500519 .865725 6.62988 -89.3491)"/></g><g filter="url(#b)"><path d="m0 0h1120.07v1416.49h-1120.07z" fill="#ff9500" transform="matrix(.866325 -.499481 .500519 .865725 249.155 -229.178)"/></g><g filter="url(#c)"><path d="m0 0h839.983v1416.49h-839.983z" fill="#ff3b30" transform="matrix(.866325 -.499481 .500519 .865725 491.802 -369.076)"/></g><g filter="url(#d)"><path d="m0 0h559.616v1416.49h-559.616z" fill="#af52de" transform="matrix(.866325 -.499481 .500519 .865726 734.449 -508.975)"/></g><g filter="url(#e)"><path d="m0 0h559.896v1416.49h-559.896z" fill="#007aff" transform="matrix(.866325 -.499481 .500519 .865725 977.096 -648.873)"/></g></g><path d="m846 6h4v476h-4z" fill="#000"/><path d="m850 6h4v476h-4z" fill="#e0e0e0"/><path d="m854 6h4v476h-4z" fill="#000"/></svg>